<svg version="1.1" id="Layer_1" xmlns="http://www.w3.org/2000/svg" xmlns:xlink="http://www.w3.org/1999/xlink" x="0px" y="0px"
	 viewBox="0 0 36 36" style="enable-background:new 0 0 36 36;" xml:space="preserve">
<style type="text/css">
	.st0{fill:#FFFFFF;}
	.st1{fill:#1C75BC;}
	.st2{fill:#1C75BC;stroke:#1C75BC;stroke-width:0.25;stroke-miterlimit:10;}
	.st3{fill:#48A1D9;}
	.st4{fill:#289245;}
	.st5{fill:#F89938;}
	.st6{fill:#1F5E30;}
	.st7{fill:#E34E25;}
</style>
<polygon class="st0" points="17.8,0.6 33.6,8 33.5,24.1 18.3,36 6.1,26.7 2.7,8.4 "/>
<polygon class="st1" points="33.5,8 26.5,12.3 11.4,3.6 17.8,0.1 "/>
<g>
	<path class="st2" d="M11.9,20.3c0.5,0.3,1.2,0.5,1.9,0.5c1.1,0,1.7-0.6,1.7-1.4c0-0.8-0.4-1.2-1.6-1.6c-1.3-0.5-2.2-1.2-2.2-2.3
		c0-1.3,1.1-2.2,2.7-2.2c0.8,0,1.5,0.2,1.8,0.4L16,14.5c-0.3-0.1-0.8-0.4-1.6-0.4c-1.1,0-1.6,0.7-1.6,1.2c0,0.8,0.5,1.2,1.6,1.6
		c1.4,0.5,2.1,1.2,2.1,2.4c0,1.3-0.9,2.4-2.9,2.4c-0.8,0-1.7-0.2-2.1-0.5L11.9,20.3z"/>
	<path class="st2" d="M18.1,21.6v-8.3h1.2l2.7,4.2c0.6,1,1.1,1.8,1.5,2.7l0,0c-0.1-1.1-0.1-2.1-0.1-3.4v-3.5h1v8.3h-1.1l-2.6-4.2
		c-0.6-0.9-1.1-1.9-1.5-2.8l0,0c0.1,1,0.1,2,0.1,3.4v3.5H18.1z"/>
</g>
<polygon class="st3" points="3.2,8.1 17.8,0.1 24.5,3.5 10,12.2 "/>
<polygon class="st4" points="33.7,8.4 26.9,12.5 26.8,30.1 33.6,25.3 "/>
<polygon class="st5" points="9.4,12.6 9.4,29.9 2.8,25.9 2.7,8.4 "/>
<polygon class="st6" points="19.6,26.8 33.7,18.2 33.8,25.3 18.9,35.5 "/>
<polygon class="st7" points="16.9,26.6 2.7,18.1 2.7,26 17.6,35.5 "/>
</svg>
